 <svg  version="1.0" xmlns="http://www.w3.org/2000/svg"  width="900.000000pt" height="675.000000pt" viewBox="0 0 900.000000 675.000000"  preserveAspectRatio="xMidYMid meet">  <g transform="translate(0.000000,675.000000) scale(0.100000,-0.100000)" fill="#ffffff" stroke="none"> <path d="M4215 6160 c-60 -4 -126 -12 -145 -19 -19 -6 -53 -11 -74 -11 -22 0 -62 -6 -90 -14 -84 -23 -139 -37 -171 -43 -16 -2 -44 -11 -62 -19 -17 -8 -39 -14 -50 -14 -10 0 -27 -7 -37 -15 -11 -8 -30 -15 -42 -15 -12 0 -35 -6 -51 -14 -15 -8 -48 -22 -73 -31 -25 -9 -52 -21 -60 -26 -8 -5 -22 -12 -30 -15 -8 -3 -28 -12 -45 -19 -16 -8 -37 -16 -45 -19 -8 -4 -28 -15 -45 -26 -16 -11 -36 -22 -42 -25 -39 -16 -43 -18 -120 -68 -24 -15 -47 -27 -53 -27 -5 0 -10 -5 -10 -10 0 -6 -10 -15 -22 -20 -13 -6 -30 -14 -38 -20 -8 -5 -30 -18 -49 -29 l-35 -20 27 -10 c15 -6 27 -15 27 -21 0 -7 12 -2 26 9 32 25 71 27 96 4 14 -13 21 -14 30 -5 8 8 53 12 129 12 117 0 118 0 147 -30 17 -16 38 -30 47 -30 21 0 65 -29 65 -44 0 -27 26 -67 48 -72 12 -4 27 -15 33 -26 23 -42 -60 -90 -91 -53 -19 23 -31 7 -24 -34 6 -36 -10 -66 -32 -59 -5 1 -19 -3 -31 -10 -30 -17 -77 -5 -109 29 -22 23 -36 29 -71 29 -41 0 -43 1 -43 30 0 29 2 30 46 30 45 0 114 30 114 50 0 20 -68 60 -102 60 -29 0 -41 -8 -82 -55 -37 -43 -53 -55 -77 -55 -36 0 -38 -13 -3 -29 36 -16 25 -35 -24 -39 -40 -3 -53 -14 -32 -27 17 -10 11 -25 -10 -25 -24 0 -60 34 -60 55 0 22 -38 11 -145 -41 -111 -54 -149 -86 -136 -111 5 -10 12 -26 15 -35 3 -11 15 -18 31 -18 14 0 25 -4 25 -9 0 -5 13 -12 30 -16 16 -4 32 -11 35 -16 4 -5 12 -9 20 -9 8 0 25 -4 39 -9 24 -10 24 -11 11 -54 -15 -49 -7 -71 21 -65 14 2 20 14 24 47 5 43 6 44 59 61 69 21 91 48 91 109 0 52 31 128 57 138 8 3 43 1 77 -5 67 -13 97 -39 93 -81 -1 -14 5 -28 16 -35 15 -9 22 -6 43 17 21 24 28 27 51 20 23 -8 29 -19 42 -74 16 -66 31 -89 65 -102 16 -6 18 -14 13 -60 -4 -28 -9 -62 -13 -74 -4 -15 0 -27 15 -39 15 -14 21 -30 21 -62 l0 -44 -32 6 c-18 4 -49 10 -68 13 -70 11 -78 40 -24 88 24 22 32 35 24 40 -6 4 -19 0 -29 -9 -10 -9 -35 -16 -59 -16 -32 0 -42 -4 -47 -20 -3 -11 -10 -20 -14 -20 -4 0 -16 9 -26 20 -18 20 -55 28 -55 11 0 -5 10 -15 23 -24 22 -15 22 -16 4 -48 -24 -43 -11 -57 40 -41 30 9 40 9 51 -2 12 -11 10 -17 -9 -35 -13 -12 -35 -24 -49 -27 -35 -8 -88 -33 -95 -45 -9 -13 -35 8 -35 27 0 17 0 17 -41 -2 -67 -31 -84 -43 -89 -66 -4 -15 -23 -31 -57 -48 -71 -35 -156 -116 -148 -141 9 -27 -22 -73 -64 -95 -20 -10 -58 -36 -85 -58 l-48 -40 4 -78 c6 -95 1 -106 -41 -89 -24 11 -32 21 -38 55 -7 33 -13 42 -33 44 -14 2 -29 8 -34 13 -16 14 -86 10 -102 -6 -12 -11 -34 -14 -90 -13 -46 2 -77 -1 -82 -8 -4 -6 -17 -16 -30 -23 -26 -14 -47 -59 -63 -140 -22 -114 21 -201 98 -201 33 0 56 21 81 72 15 29 23 33 61 36 l44 3 -6 -66 c-2 -37 -10 -72 -16 -78 -6 -6 -11 -22 -11 -35 0 -22 4 -24 32 -20 17 3 49 1 70 -5 l38 -9 0 -98 c0 -81 3 -100 18 -113 21 -19 48 -22 57 -7 3 6 22 10 41 10 19 0 34 -4 34 -10 0 -5 11 -10 25 -10 18 0 25 5 25 18 0 19 31 62 45 62 4 0 23 7 42 16 25 13 37 14 46 5 6 -6 27 -11 46 -11 19 0 42 -7 52 -16 13 -12 40 -17 102 -18 l85 -1 75 -78 c68 -69 79 -77 114 -77 61 0 153 -69 153 -116 0 -12 7 -29 15 -38 8 -8 15 -21 15 -30 0 -21 48 -56 79 -56 15 0 42 -13 61 -30 22 -18 47 -29 66 -30 39 0 97 -24 139 -56 18 -13 36 -24 42 -24 6 0 22 -9 37 -21 23 -18 26 -28 26 -80 0 -53 -4 -65 -42 -121 -42 -61 -43 -65 -49 -168 -8 -120 -18 -174 -43 -216 -19 -32 -67 -64 -94 -64 -10 0 -34 -11 -55 -25 -36 -25 -37 -27 -37 -88 0 -36 -6 -72 -15 -87 -16 -27 -46 -91 -72 -152 -15 -34 -20 -38 -54 -38 -44 0 -59 -16 -33 -34 10 -8 17 -26 17 -46 0 -38 -32 -67 -78 -72 -25 -3 -30 -7 -31 -31 -1 -16 -7 -32 -14 -37 -8 -5 -10 -18 -5 -40 4 -18 3 -42 -3 -54 -33 -71 -34 -80 -16 -93 10 -7 21 -13 26 -13 11 0 10 -58 -2 -99 -7 -25 -6 -40 5 -61 19 -36 71 -80 96 -80 16 0 20 -6 17 -28 -3 -24 -7 -27 -48 -30 -76 -5 -168 53 -258 162 -36 43 -74 172 -66 224 6 38 4 44 -14 49 -21 5 -26 18 -37 96 -4 26 -11 50 -16 53 -5 3 -9 49 -9 102 -1 62 -6 111 -16 137 -10 26 -18 97 -23 200 -5 88 -13 173 -19 188 -7 16 -12 38 -12 51 0 27 -40 65 -99 95 -61 31 -89 66 -151 187 -29 56 -70 123 -91 149 -41 49 -51 99 -27 123 10 10 10 17 0 32 -22 36 -13 74 34 145 43 66 45 73 42 130 -3 37 -11 71 -23 88 l-18 28 -22 -27 -22 -28 -42 21 c-49 24 -121 88 -121 106 0 7 -14 29 -31 50 -22 27 -38 37 -59 37 -36 0 -93 33 -115 67 -15 23 -21 25 -63 19 -41 -5 -55 -1 -146 45 -142 71 -144 73 -148 150 -2 35 -7 64 -13 64 -5 0 -15 -31 -22 -70 -6 -38 -17 -101 -24 -140 -18 -100 -24 -575 -9 -644 7 -30 16 -89 20 -130 9 -89 26 -178 46 -241 8 -25 14 -56 14 -70 1 -14 7 -36 15 -50 8 -14 14 -35 15 -46 0 -12 7 -35 15 -50 8 -16 15 -38 15 -49 0 -11 7 -29 15 -39 8 -11 15 -30 15 -42 0 -12 7 -27 15 -34 8 -7 15 -21 15 -32 0 -11 6 -32 14 -46 13 -26 38 -81 51 -112 3 -8 21 -42 40 -75 18 -33 44 -80 57 -105 13 -25 29 -51 36 -58 6 -7 12 -19 12 -27 0 -7 3 -15 8 -17 10 -4 52 -65 52 -77 0 -5 7 -11 15 -15 8 -3 15 -12 15 -20 0 -8 3 -16 8 -18 4 -2 19 -21 35 -44 15 -22 35 -49 45 -60 9 -10 35 -41 57 -69 67 -85 304 -316 395 -385 25 -19 52 -40 60 -47 26 -23 140 -103 146 -103 3 0 23 -13 44 -30 21 -16 43 -30 48 -30 6 0 17 -6 24 -13 20 -18 104 -62 323 -167 33 -16 72 -32 88 -36 15 -3 30 -10 33 -15 3 -5 12 -9 21 -9 8 0 29 -6 46 -14 18 -8 59 -22 92 -31 33 -9 80 -23 105 -30 180 -54 496 -94 730 -94 134 0 390 22 505 43 131 24 284 61 320 76 11 5 31 12 45 15 14 4 57 18 95 32 64 24 90 34 195 80 211 91 524 290 695 442 62 55 246 241 287 291 61 72 139 172 156 200 9 14 19 27 22 30 3 3 17 23 30 45 13 22 27 42 31 45 4 3 17 23 29 45 12 22 33 60 47 85 40 71 110 210 133 265 11 28 25 58 30 67 6 10 10 22 10 27 0 5 5 22 12 38 24 60 47 129 48 143 0 8 7 28 15 44 8 15 15 36 15 46 0 10 6 40 14 66 67 233 97 563 78 861 -14 219 -31 332 -53 346 -24 15 -107 0 -113 -21 -3 -10 -49 -60 -101 -112 -75 -75 -95 -100 -93 -120 8 -83 -35 -213 -73 -223 -25 -7 -34 3 -58 58 -12 28 -26 58 -31 67 -6 10 -10 23 -10 29 0 7 -9 30 -19 53 -27 58 -51 143 -51 180 0 39 -15 56 -50 56 -27 0 -60 27 -60 47 0 6 -21 32 -47 57 l-48 46 -108 0 c-103 0 -110 1 -144 28 -28 20 -48 27 -82 27 -36 0 -54 7 -84 30 -20 17 -37 35 -37 41 0 17 -37 47 -49 39 -21 -12 -10 -37 39 -89 28 -29 50 -61 50 -70 0 -27 27 -30 63 -7 40 25 75 27 83 6 4 -9 26 -27 50 -41 35 -21 44 -31 44 -54 0 -67 -102 -193 -166 -206 -19 -3 -36 -15 -42 -29 -6 -12 -22 -25 -37 -29 -15 -4 -43 -17 -63 -29 -43 -27 -120 -57 -145 -57 -9 0 -17 -6 -17 -14 0 -23 28 -39 57 -33 119 24 145 28 158 23 23 -8 18 -67 -9 -123 -13 -26 -34 -70 -47 -96 -13 -27 -59 -84 -104 -130 -45 -45 -102 -114 -128 -153 -44 -67 -47 -76 -47 -135 0 -35 7 -86 15 -114 17 -54 23 -167 11 -202 -4 -13 -36 -44 -71 -71 -35 -26 -74 -61 -86 -76 -20 -25 -21 -32 -11 -60 24 -66 12 -102 -43 -135 -30 -18 -35 -25 -35 -59 0 -27 -8 -47 -30 -72 -16 -19 -29 -39 -30 -44 -1 -25 -74 -95 -126 -121 -47 -24 -75 -31 -138 -34 -92 -4 -106 6 -106 71 0 26 -14 65 -40 116 -36 71 -44 99 -70 234 -5 25 -21 72 -36 105 -37 77 -37 139 0 213 28 57 35 104 18 136 -5 11 -12 42 -15 70 -6 51 -43 133 -75 166 -39 39 -44 50 -37 76 3 15 11 54 17 86 10 53 9 60 -7 72 -10 8 -37 14 -59 14 -35 1 -44 5 -61 33 -27 42 -63 46 -129 14 -42 -21 -72 -26 -163 -31 l-112 -5 -61 51 c-33 29 -68 68 -77 87 -9 20 -39 60 -66 89 l-50 54 8 86 c9 97 10 134 4 207 -3 41 2 58 23 92 15 23 30 53 34 67 3 14 10 26 15 26 5 0 9 6 9 13 0 8 16 27 36 43 20 16 49 40 65 52 22 18 29 32 29 60 0 38 36 102 57 102 20 0 53 42 53 68 0 18 -9 27 -39 39 -49 19 -54 40 -33 145 19 100 39 118 108 100 85 -23 114 -12 114 44 0 34 -38 84 -65 84 -11 0 -15 7 -13 23 2 18 13 24 59 33 68 13 99 33 166 101 44 45 57 53 89 53 l37 0 -7 40 c-3 23 -2 49 4 60 15 27 60 27 67 0 3 -12 10 -19 16 -17 19 6 17 21 -7 50 -23 28 -23 28 -62 12 -46 -19 -89 -7 -98 28 -11 41 -6 84 12 104 20 23 78 53 102 53 15 0 104 103 117 135 2 8 15 17 26 20 12 4 36 12 52 20 89 39 207 53 256 28 13 -7 65 -22 114 -34 124 -29 164 -48 165 -76 0 -41 44 -25 55 20 4 15 11 29 15 32 14 9 39 -6 45 -26 6 -18 35 -27 35 -11 0 21 83 43 171 45 62 2 94 7 97 15 5 15 108 17 117 2 3 -5 14 -10 23 -10 16 1 16 2 0 14 -10 7 -18 23 -18 34 0 27 29 62 51 62 34 0 26 14 -33 54 -84 58 -99 67 -157 101 -28 17 -51 33 -51 38 0 4 -9 7 -19 7 -11 0 -23 5 -26 11 -4 5 -17 15 -28 20 -12 5 -42 21 -66 34 -24 14 -50 25 -56 25 -7 0 -18 7 -25 15 -7 8 -23 15 -35 15 -12 0 -28 7 -35 15 -7 8 -20 15 -29 15 -10 0 -26 7 -37 15 -10 8 -28 15 -40 15 -11 0 -29 7 -40 15 -10 8 -31 15 -45 15 -15 0 -32 7 -39 15 -7 8 -24 15 -39 15 -14 0 -39 7 -55 15 -15 8 -40 15 -55 15 -14 1 -37 7 -51 15 -14 8 -40 14 -57 15 -18 0 -50 6 -70 14 -21 8 -68 17 -105 20 -38 3 -76 10 -86 15 -24 13 -523 21 -667 11z m1300 -630 c4 -6 -5 -10 -20 -10 -15 0 -24 4 -20 10 3 6 12 10 20 10 8 0 17 -4 20 -10z m-2325 -75 c0 -8 -9 -15 -20 -15 -11 0 -20 7 -20 15 0 8 9 15 20 15 11 0 20 -7 20 -15z m1342 -302 c10 -9 18 -29 18 -45 0 -19 16 -50 48 -91 26 -34 46 -70 44 -79 -6 -28 -47 -47 -116 -54 l-66 -7 0 40 c0 23 6 46 14 52 24 20 26 50 5 56 -11 4 -26 23 -35 43 -17 42 -7 72 30 90 30 15 37 14 58 -5z m1495 -2549 c-2 -33 -9 -69 -15 -80 -13 -22 -52 -152 -52 -170 0 -7 -12 -36 -27 -64 -32 -61 -61 -80 -97 -60 -35 18 -46 112 -20 166 10 21 19 58 19 83 2 78 3 80 51 102 30 15 54 36 71 63 33 52 45 60 61 38 10 -12 12 -36 9 -78z"/> <path d="M2938 5573 c-31 -16 -39 -59 -13 -69 8 -4 15 -15 15 -25 0 -23 35 -26 56 -5 18 19 18 36 0 36 -24 0 -30 39 -10 61 16 18 16 19 -2 18 -10 -1 -31 -8 -46 -16z"/> <path d="M2714 5542 c-12 -9 -27 -27 -32 -38 -6 -12 -25 -24 -42 -27 -41 -9 -38 -27 4 -27 26 0 41 8 62 33 28 33 47 36 77 10 16 -15 17 -14 17 15 0 49 -46 67 -86 34z"/> <path d="M5452 5366 c2 -12 9 -20 18 -19 95 13 120 43 35 42 -52 -1 -56 -3 -53 -23z"/> <path d="M5573 4753 c-8 -3 -11 -14 -7 -27 4 -17 -1 -27 -21 -40 -25 -17 -27 -17 -54 13 -40 43 -65 40 -96 -10 -38 -60 -39 -151 -2 -120 7 5 32 13 55 17 23 4 45 11 48 15 8 13 47 11 80 -5 38 -18 115 -28 133 -17 7 5 11 17 7 27 -6 19 -17 26 -85 59 -29 14 -33 20 -29 50 4 34 -5 46 -29 38z m-123 -97 c0 -16 -18 -31 -27 -22 -8 8 5 36 17 36 5 0 10 -6 10 -14z"/> <path d="M5965 4751 c-48 -16 -75 -35 -75 -53 0 -31 26 -83 59 -117 35 -35 35 -38 21 -77 -14 -37 12 -63 69 -71 40 -6 41 -5 41 25 0 19 -9 39 -22 52 l-23 21 24 18 23 18 -36 22 c-38 24 -86 79 -86 100 0 6 11 17 25 23 14 6 24 18 23 26 -4 18 -16 22 -43 13z"/> <path d="M4940 4690 c0 -21 46 -73 87 -96 46 -28 58 -47 43 -74 -6 -10 -10 -28 -10 -40 0 -32 -34 -22 -38 12 -4 30 -15 42 -75 73 -23 12 -55 41 -72 63 -35 47 -43 49 -75 22 -24 -21 -34 -23 -87 -20 -22 1 -33 -3 -33 -12 0 -8 -20 -34 -44 -60 -23 -25 -46 -60 -49 -77 -7 -35 -39 -58 -102 -74 -55 -15 -58 -31 -6 -35 29 -2 54 5 93 26 49 28 63 30 176 35 115 4 123 3 133 -16 6 -11 8 -37 5 -59 -6 -38 -6 -39 36 -58 24 -11 49 -20 55 -20 7 0 24 -10 38 -22 14 -12 40 -27 57 -33 18 -7 41 -16 50 -20 14 -6 19 0 24 33 4 29 12 42 27 46 23 6 77 -3 92 -15 23 -17 105 -32 197 -34 l97 -3 6 29 c4 16 11 31 16 34 5 4 9 28 9 55 l0 48 -107 -3 c-98 -2 -110 -1 -130 18 -13 11 -23 25 -23 30 0 5 -6 23 -14 40 -8 18 -17 40 -20 50 -7 22 -35 19 -50 -6 -9 -16 -7 -22 12 -34 12 -9 22 -19 22 -24 0 -10 -61 -68 -72 -69 -7 0 -68 86 -68 96 0 3 -7 12 -15 21 -8 8 -13 19 -9 24 11 19 -8 48 -49 72 -23 14 -55 39 -71 56 -30 31 -56 41 -56 21z"/> <path d="M5570 4068 c0 -13 6 -32 14 -43 7 -11 17 -31 21 -44 4 -14 21 -46 36 -72 16 -25 29 -60 29 -77 0 -21 10 -40 30 -60 17 -17 30 -40 30 -52 0 -14 20 -42 50 -71 28 -27 50 -42 50 -34 0 7 -4 17 -10 20 -5 3 -10 14 -10 23 0 9 -7 30 -15 46 -8 15 -15 36 -15 46 0 10 -15 36 -34 59 -19 22 -42 62 -52 88 -23 61 -96 185 -112 191 -7 2 -12 -6 -12 -20z"/> </g> </svg> 