 <svg  version="1.0" xmlns="http://www.w3.org/2000/svg"  width="645.000000pt" height="555.000000pt" viewBox="0 0 645.000000 555.000000"  preserveAspectRatio="xMidYMid meet">  <g transform="translate(0.000000,555.000000) scale(0.100000,-0.100000)" fill="#ffffff" stroke="none"> <path d="M0 2775 l0 -2775 3225 0 3225 0 0 2775 0 2775 -3225 0 -3225 0 0 -2775z m5835 665 l0 -1645 -445 -5 -445 -5 0 -190 0 -190 100 -5 100 -5 0 -100 0 -100 -2005 0 -2005 0 0 100 0 100 115 5 115 5 0 190 0 190 -445 5 -445 5 -3 1635 c-1 899 0 1641 3 1648 3 10 545 12 2682 10 l2678 -3 0 -1645z m-25 -2445 l5 -40 115 -5 115 -5 0 -250 0 -250 -310 0 -310 0 0 250 0 250 133 3 c113 2 132 0 132 -13 0 -8 7 -15 15 -15 8 0 15 7 15 15 0 8 -7 15 -15 15 -11 0 -15 11 -15 38 0 21 3 42 7 46 4 4 30 6 58 4 l50 -3 5 -40z m-5070 -105 c5 -23 11 -25 60 -25 49 0 55 2 60 25 6 24 10 25 75 25 65 0 69 -1 75 -25 5 -23 11 -25 60 -25 49 0 55 2 60 25 6 24 10 25 75 25 65 0 69 -1 75 -25 5 -23 11 -25 60 -25 49 0 55 2 60 25 6 24 10 25 75 25 65 0 69 -1 75 -25 5 -23 11 -25 60 -25 49 0 55 2 60 25 6 24 10 25 75 25 65 0 69 -1 75 -25 5 -23 11 -25 60 -25 49 0 55 2 60 25 6 24 10 25 75 25 65 0 69 -1 75 -25 5 -23 11 -25 60 -25 49 0 55 2 60 25 6 24 10 25 75 25 65 0 69 -1 75 -25 5 -23 11 -25 60 -25 49 0 55 2 60 25 6 24 10 25 75 25 65 0 69 -1 75 -25 5 -23 11 -25 60 -25 49 0 55 2 60 25 6 24 10 25 75 25 65 0 69 -1 75 -25 5 -23 11 -25 60 -25 49 0 55 2 60 25 6 24 10 25 75 25 65 0 69 -1 75 -25 5 -23 11 -25 60 -25 49 0 55 2 60 25 6 24 10 25 75 25 65 0 69 -1 75 -25 5 -23 11 -25 60 -25 49 0 55 2 60 25 6 24 10 25 75 25 65 0 69 -1 75 -25 5 -23 11 -25 60 -25 49 0 55 2 60 25 6 24 10 25 75 25 65 0 69 -1 75 -25 5 -23 11 -25 60 -25 49 0 55 2 60 25 6 24 10 25 75 25 65 0 69 -1 75 -25 5 -23 11 -25 60 -25 49 0 55 2 60 25 6 24 10 25 75 25 65 0 69 -1 75 -25 5 -23 11 -25 60 -25 49 0 55 2 60 25 6 24 10 25 75 25 65 0 69 -1 75 -25 5 -23 11 -25 60 -25 49 0 55 2 60 25 6 24 10 25 75 25 65 0 69 -1 75 -25 6 -24 9 -25 105 -30 l100 -5 0 -190 0 -190 -2440 0 -2440 0 0 190 0 190 98 3 c75 2 99 6 102 17 3 8 7 22 10 30 4 13 18 15 72 13 62 -3 68 -5 73 -28z"/> <path d="M625 4928 c-3 -7 -4 -681 -3 -1498 l3 -1485 2530 0 2530 0 0 1495 0 1495 -2528 3 c-2017 2 -2529 0 -2532 -10z m4910 -1488 l0 -1405 -2380 0 -2380 0 -3 1395 c-1 767 0 1401 3 1408 3 10 485 12 2382 10 l2378 -3 0 -1405z"/> <path d="M925 4688 c-3 -7 -4 -573 -3 -1258 l3 -1245 2230 0 2230 0 0 1255 0 1255 -2228 3 c-1777 2 -2229 0 -2232 -10z m1292 -580 c13 -12 23 -29 23 -38 0 -9 20 -36 45 -60 l45 -44 0 -616 0 -617 -22 -21 c-13 -11 -39 -22 -58 -24 -26 -2 -36 -8 -38 -23 -2 -11 -13 -30 -25 -42 l-20 -23 -452 0 -452 0 -20 23 c-12 12 -23 31 -25 42 -2 15 -12 21 -38 23 -19 2 -45 13 -58 24 -21 21 -22 28 -22 187 0 155 1 166 22 188 12 13 29 23 38 23 9 0 29 14 45 30 36 37 82 40 113 7 19 -21 22 -35 24 -162 l3 -140 370 0 370 0 3 619 2 620 22 23 c28 30 74 30 105 1z m1380 0 c12 -13 23 -32 25 -43 2 -11 12 -21 23 -23 11 -2 30 -13 43 -25 l22 -20 0 -361 c0 -356 0 -360 -22 -383 -12 -13 -29 -23 -39 -23 -9 0 -22 -7 -29 -15 -10 -12 -67 -15 -364 -17 l-351 -3 -3 -245 c-2 -234 -3 -245 -24 -267 -13 -14 -33 -23 -52 -23 -33 0 -76 34 -76 60 0 9 -20 36 -45 60 l-45 44 0 571 0 571 45 44 c25 24 45 51 45 59 0 8 10 25 22 38 l21 23 392 0 392 0 20 -22z m1440 0 c12 -13 23 -32 25 -43 2 -15 12 -21 38 -23 73 -7 106 -84 57 -130 -23 -22 -28 -22 -448 -24 l-424 -3 0 -505 0 -505 424 -3 c420 -2 425 -2 448 -24 49 -46 16 -123 -57 -130 -26 -2 -36 -8 -38 -23 -2 -11 -13 -30 -25 -42 l-20 -23 -407 0 -406 0 -44 45 c-24 25 -51 45 -59 45 -8 0 -25 10 -38 22 l-23 21 0 617 0 617 23 20 c12 12 31 23 42 25 11 2 21 12 23 23 2 11 13 30 25 43 l20 22 422 0 422 0 20 -22z"/> <path d="M2905 3877 c-3 -7 -4 -107 -3 -222 l3 -210 280 0 280 0 0 220 0 220 -278 3 c-219 2 -279 0 -282 -11z"/> <path d="M1794 1717 c-3 -8 -4 -47 -2 -88 l3 -74 100 0 100 0 0 85 0 85 -98 3 c-75 2 -99 0 -103 -11z"/> <path d="M1524 1657 c-2 -7 -3 -60 -2 -118 l3 -104 1630 0 1630 0 0 115 0 115 -1360 0 -1360 0 -3 -66 c-2 -54 -7 -70 -26 -88 -22 -20 -31 -21 -162 -19 l-139 3 -5 85 -5 85 -98 3 c-75 2 -99 0 -103 -11z m801 -92 l0 -40 -70 0 c-69 0 -70 0 -73 28 -6 53 1 58 75 55 l68 -3 0 -40z"/> <path d="M5575 787 c-3 -7 -5 -54 -3 -103 l3 -89 160 0 160 0 0 100 0 100 -85 0 -85 0 -3 -35 c-4 -42 -38 -82 -67 -78 -17 3 -21 12 -25 58 -4 48 -8 55 -28 58 -12 2 -24 -3 -27 -11z"/> <path d="M534 696 c-3 -8 -4 -27 -2 -43 l3 -28 2290 0 2290 0 0 40 0 40 -2288 3 c-1967 2 -2288 0 -2293 -12z"/> </g> </svg> 